<svg id="Layer_1" data-name="Layer 1" xmlns="http://www.w3.org/2000/svg" viewBox="0 0 1024 1024"><defs><style>.cls-1{fill:#3fa9f5;}.cls-2{fill:none;stroke:#fff;stroke-miterlimit:10;stroke-width:45px;}</style></defs><title>Artboard 1</title><path class="cls-1" d="M379,77.19,244.57,315.91V448.62H193.42V314.77L59,77.19h61.1L194,213l27.28,54.56,25-49.45L321,77.19Z"/><path class="cls-1" d="M662.31,348q0,26.43-10.8,46.32a94.12,94.12,0,0,1-30.12,33.11q-19.33,13.22-46.46,19.75t-59.82,6.54q-14.78,0-29.41-1.14t-28.13-2.84q-13.5-1.71-25.43-4t-21.6-4.83V392.07a264.3,264.3,0,0,0,47.88,12.5q26.57,4.55,60.39,4.55,24.44,0,41.63-3.84t28.13-11.37a45.1,45.1,0,0,0,15.91-18.33,58.53,58.53,0,0,0,5-24.72q0-15.06-8.38-25.72a82.69,82.69,0,0,0-22-19,203.19,203.19,0,0,0-31.12-15.35q-17.48-7-35.67-14.35T476.6,260.35a147.36,147.36,0,0,1-31.12-20.46,94.49,94.49,0,0,1-22-27.71q-8.39-15.91-8.38-37.8a94,94,0,0,1,8-37.51q8-18.47,24.72-32.82t43.05-23.16q26.28-8.81,62.66-8.81,9.38,0,20.32.85T596,75.35q11.22,1.57,22.17,3.55t20.32,4.26v45.47a345.27,345.27,0,0,0-43.76-9.52,287.08,287.08,0,0,0-42.34-3.27q-43.48,0-63.94,14.49t-20.46,38.93q0,15.07,8.38,25.86a83.31,83.31,0,0,0,22,19.32,194.32,194.32,0,0,0,31.12,15.49q17.48,7,35.67,14.35t35.67,16.2a145.44,145.44,0,0,1,31.12,20.89,97,97,0,0,1,22,28.28Q662.31,325.85,662.31,348Z"/><path class="cls-1" d="M967.24,448.62H756.09V77.19H967.24v42.63H806.68V234.91H961v42.63H806.68V405.42H967.24Z"/><rect class="cls-1" x="59" y="501" width="908" height="471"/><path class="cls-2" d="M39,890c54.16-94.28,118.11-177.57,175-168,78.19,13.15,80.71,191.21,149,201,102.86,14.75,192.37-375.64,307-368,109.76,7.31,146.92,373.14,237,370,33.95-1.18,61.31-54.29,82-114"/></svg>